<?xml version="1.0" standalone="no"?>
<!--
  ~ /*
  ~  * This file is part of the Hesperides distribution.
  ~  * (https://github.com/voyages-sncf-technologies/hesperides)
  ~  * Copyright (c) 2016 VSCT.
  ~  *
  ~  * Hesperides is free software: you can redistribute it and/or modify
  ~  * it under the terms of the GNU General Public License as
  ~  * published by the Free Software Foundation, version 3.
  ~  *
  ~  * Hesperides is distributed in the hope that it will be useful, but
  ~  * WITHOUT ANY WARRANTY; without even the implied warranty of
  ~  * MERCHANTABILITY or FITNESS FOR A PARTICULAR PURPOSE. See the GNU
  ~  * General Public License for more details.
  ~  *
  ~  * You should have received a copy of the GNU General Public License
  ~  * along with this program. If not, see <http://www.gnu.org/licenses/>.
  ~  */
  ~
  -->

<!DOCTYPE svg PUBLIC "-//W3C//DTD SVG 1.1//EN" "http://www.w3.org/Graphics/SVG/1.1/DTD/svg11.dtd" >
<svg xmlns="http://www.w3.org/2000/svg">
<metadata>
This is a custom SVG webfont generated by Font Squirrel.
Copyright   : Copyright  1989 1995 2002 Adobe Systems Incorporated  All Rights Reserved  1981 1995 2002 Heidelberger Druckmaschinen AG All rights reserved
Designer    : Adrian Frutiger
Foundry URL : httpwwwadobecomtype
</metadata>
<defs>
<font id="AvenirLTStd55Roman" horiz-adv-x="1138" >
<font-face units-per-em="2048" ascent="1548" descent="-500" />
<missing-glyph horiz-adv-x="569" />
<glyph unicode=" "  horiz-adv-x="569" />
<glyph unicode="&#x09;" horiz-adv-x="569" />
<glyph unicode="&#xa0;" horiz-adv-x="569" />
<glyph unicode="!" horiz-adv-x="569" d="M162 111q0 51 35.5 86.5t87 35.5t87.5 -35.5t36 -86.5q0 -49 -37 -86t-86 -37t-86 37t-37 86zM199 406v1044h172v-1044h-172z" />
<glyph unicode="&#x22;" horiz-adv-x="1062" d="M307 958v492h148v-492h-148zM608 958v492h148v-492h-148z" />
<glyph unicode="#" d="M61 436v135h222l41 312h-201v135h221l62 432h137l-62 -432h258l62 432h137l-61 -432h200v-135h-219l-43 -312h201v-135h-221l-62 -436h-137l61 436h-258l-61 -436h-137l61 436h-201zM420 571h258l43 312h-258z" />
<glyph unicode="$" d="M86 166l143 125q43 -68 125 -110t170 -46v520q-406 109 -405 416q0 166 118.5 277.5t286.5 126.5v135h99v-135q115 0 221 -43t176 -123l-135 -123q-96 129 -262 129v-510q82 -25 132 -44.5t113.5 -54t98 -74.5t60.5 -102.5t26 -140.5q0 -176 -124 -289.5t-306 -124.5 v-145h-99v145q-297 1 -438 191zM303 1069q0 -96 54.5 -144t166.5 -94v484q-100 -18 -160.5 -84t-60.5 -162zM623 135q106 12 175.5 81t69.5 165q0 102 -66.5 157.5t-178.5 90.5v-494z" />
<glyph unicode="%" horiz-adv-x="1705" d="M78 1116.5q0 149.5 104.5 254t254 104.5t254 -104.5t104.5 -254t-104.5 -254t-254 -104.5t-254 104.5t-104.5 254zM225 1116q0 -86 63.5 -148.5t147.5 -62.5t147.5 62.5t63.5 148.5t-63.5 148.5t-147.5 62.5t-147.5 -62.5t-63.5 -148.5zM348 0l909 1516l113 -66 l-909 -1516zM911 333.5q0 149.5 103.5 254t255 104.5t255 -104.5t103.5 -254t-103.5 -254t-255 -104.5t-255 104.5t-103.5 254zM1059 334q0 -86 63.5 -148.5t147.5 -62.5t147.5 62.5t63.5 148.5t-63.5 148.5t-147.5 62.5t-147.5 -62.5t-63.5 -148.5z" />
<glyph unicode="&#x26;" horiz-adv-x="1478" d="M123 389q0 272 321 420q-84 86 -129 163t-45 173q0 156 108.5 244t266.5 88q156 0 259.5 -84t103.5 -238q0 -209 -308 -369l308 -325l194 325h195l-279 -446l332 -340h-236l-196 209q-92 -117 -194.5 -175.5t-239.5 -58.5q-193 0 -327 113t-134 301zM295 395 q0 -115 84 -193.5t199 -78.5q100 0 175.5 51t159.5 150l-362 381q-119 -66 -187.5 -136t-68.5 -174zM442 1135q0 -86 101 -191l51 -53q63 35 87 49t71 51t65.5 77t18.5 91q0 78 -53.5 124t-131.5 46q-88 0 -148.5 -54t-60.5 -140z" />
<glyph unicode="'" horiz-adv-x="569" d="M211 958v492h147v-492h-147z" />
<glyph unicode="(" horiz-adv-x="569" d="M113 590q0 504 299 909l110 -82q-262 -360 -262 -827q0 -238 62.5 -426.5t199.5 -405.5l-110 -77q-145 201 -222 436t-77 473z" />
<glyph unicode=")" horiz-adv-x="569" d="M47 -238q262 360 262 828q0 238 -62.5 426t-199.5 405l111 78q145 -201 222 -436.5t77 -472.5q0 -504 -299 -909z" />
<glyph unicode="*" horiz-adv-x="909" d="M63 1124l39 119l291 -98v305h123v-305l291 98l39 -119l-289 -98l182 -244l-100 -77l-184 251l-179 -251l-102 77l178 244z" />
<glyph unicode="+" horiz-adv-x="1363" d="M147 553v135h467v467h136v-467h467v-135h-467v-467h-136v467h-467z" />
<glyph unicode="," horiz-adv-x="569" d="M106 -283l140 492h186l-168 -492h-158z" />
<glyph unicode="-" horiz-adv-x="681" d="M90 418v147h502v-147h-502z" />
<glyph unicode="." horiz-adv-x="569" d="M162 111q0 51 35.5 86.5t87 35.5t87.5 -35.5t36 -86.5q0 -49 -37 -86t-86 -37t-86 37t-37 86z" />
<glyph unicode="/" horiz-adv-x="757" d="M6 -37l617 1573l129 -49l-617 -1575z" />
<glyph unicode="0" d="M78 724.5q0 106.5 12 205t46 201t87 176t142.5 121t204 47.5t203.5 -47.5t142.5 -121t87 -176t46 -201t12.5 -205t-12.5 -204.5t-46 -200.5t-87 -176t-142.5 -121t-203.5 -47.5t-204 47.5t-142.5 121t-87 176t-46 200.5t-12 204.5zM250 725q0 -76 5 -145.5t24.5 -157.5 t52.5 -150.5t94 -105.5t143 -43t143.5 43t94.5 105.5t52.5 150.5t24.5 157.5t5 145.5t-5 145.5t-24.5 157.5t-52.5 150.5t-94.5 105.5t-143.5 43t-143 -43t-94 -105.5t-52.5 -150.5t-24.5 -157.5t-5 -145.5z" />
<glyph unicode="1" d="M199 1135l389 315h149v-1450h-172v1229h-4l-260 -219z" />
<glyph unicode="2" d="M102 0v197l547 532q115 111 160 182.5t45 169.5q0 111 -76 178.5t-188 67.5q-109 0 -181.5 -62.5t-93.5 -168.5l-186 16q29 174 151.5 268.5t303.5 94.5q188 0 315 -103.5t127 -290.5q0 -82 -20.5 -152.5t-68.5 -135t-85 -103.5t-109 -106l-446 -420v-4h739v-160h-934z " />
<glyph unicode="3" d="M76 281l174 57q37 -117 104.5 -166t188.5 -49q125 0 210 80t85 205q0 147 -106.5 213.5t-260.5 66.5h-53v148h53q330 0 330 251q0 109 -68.5 174.5t-179.5 65.5q-188 0 -266 -162l-166 64q51 119 163.5 182.5t256.5 63.5q184 0 308 -99.5t124 -279.5q0 -113 -69.5 -205 t-178.5 -127v-4q135 -23 216 -124t81 -241q0 -199 -137 -309.5t-342 -110.5q-363 1 -467 306z" />
<glyph unicode="4" d="M72 332v190l575 928h211v-958h209v-160h-209v-332h-172v332h-614zM219 492h467v757h-4z" />
<glyph unicode="5" d="M96 240l172 65q37 -84 109 -133t162 -49q133 0 222 93t89 241q0 156 -100.5 242.5t-257.5 86.5q-143 0 -295 -90l14 754h760v-160h-592l-6 -391q72 35 186 35q207 0 335 -135t128 -342q0 -213 -141.5 -347.5t-356.5 -134.5q-299 1 -428 265z" />
<glyph unicode="6" d="M84 430q0 115 34 206t103 202l385 612h201l-389 -604l4 -4q74 43 194 43q190 0 314.5 -127t124.5 -328q0 -207 -137.5 -331t-348.5 -124t-348 124t-137 331zM256 430q0 -139 90 -223t223 -84t223.5 84t90.5 223t-90.5 223t-223.5 84t-223 -84t-90 -223z" />
<glyph unicode="7" d="M98 1290v160h885v-160l-580 -1290h-194l590 1290h-701z" />
<glyph unicode="8" d="M106 399q0 137 79 241.5t208 131.5v4q-106 29 -171.5 121t-65.5 199q0 168 117.5 273.5t296 105.5t296 -105.5t117.5 -273.5q0 -106 -65.5 -198.5t-172.5 -121.5v-4q129 -27 208 -131t79 -242q0 -193 -132 -308.5t-330.5 -115.5t-331 115.5t-132.5 308.5zM279 412 q0 -125 83.5 -207t206.5 -82t207 82t84 207t-84 206.5t-207 81.5t-206.5 -81.5t-83.5 -206.5zM328 1087.5q0 -104.5 67.5 -172t174 -67.5t174 67.5t67.5 172t-67.5 172t-174 67.5t-174 -67.5t-67.5 -172z" />
<glyph unicode="9" d="M84 1020q0 207 137 331t348 124t348.5 -124t137.5 -331q0 -115 -34 -206t-103 -202l-386 -612h-200l389 604l-4 4q-74 -43 -195 -43q-190 0 -314 127t-124 328zM256 1020q0 -139 90 -223t223 -84t223.5 84t90.5 223t-90.5 223t-223.5 84t-223 -84t-90 -223z" />
<glyph unicode=":" horiz-adv-x="569" d="M162 111q0 51 35.5 86.5t87 35.5t87.5 -35.5t36 -86.5q0 -49 -37 -86t-86 -37t-86 37t-37 86zM162 860q0 51 35.5 87t87 36t87.5 -36t36 -87q0 -49 -37 -86t-86 -37t-86 37t-37 86z" />
<glyph unicode=";" horiz-adv-x="569" d="M106 -283l140 492h186l-168 -492h-158zM162 860q0 51 35.5 87t87 36t87.5 -36t36 -87q0 -49 -37 -86t-86 -37t-86 37t-37 86z" />
<glyph unicode="&#x3c;" horiz-adv-x="1363" d="M147 561v119l1070 475v-135l-904 -399l904 -400v-135z" />
<glyph unicode="=" horiz-adv-x="1363" d="M147 393v135h1070v-135h-1070zM147 713v135h1070v-135h-1070z" />
<glyph unicode="&#x3e;" horiz-adv-x="1363" d="M147 86v135l904 400l-904 399v135l1070 -475v-119z" />
<glyph unicode="?" horiz-adv-x="987" d="M55 1137q27 164 147 257t290 93q174 0 286.5 -96.5t112.5 -268.5q0 -66 -16.5 -119t-57.5 -106t-68.5 -82t-91.5 -88q-63 -61 -80.5 -100t-17.5 -127v-94h-172v129q0 106 25.5 152t115.5 136l36 36q28 28 37 38t31.5 35.5t31 42t21.5 41t17.5 49.5t4.5 51 q0 100 -58.5 161.5t-159 61.5t-167 -60t-82.5 -163zM350 111q0 51 36 86.5t87 35.5t87 -35.5t36 -86.5q0 -49 -37 -86t-86 -37t-86 37t-37 86z" />
<glyph unicode="@" horiz-adv-x="1638" d="M90 725q0 317 224.5 539.5t541.5 222.5q287 0 489.5 -178.5t202.5 -448.5q0 -127 -48 -240.5t-119.5 -188.5t-154.5 -119t-157 -44q-55 0 -92 35t-39 100h-4q-117 -135 -256 -135q-129 0 -209 91.5t-80 226.5q0 225 135 402t342 177q166 0 228 -168h4l37 129h133 l-172 -579q-18 -59 -19 -103q0 -41 49 -41q100 0 193.5 140.5t93.5 306.5q0 231 -167 378.5t-390 147.5q-264 0 -447.5 -192.5t-183.5 -458.5q0 -272 187.5 -461.5t443.5 -189.5q152 0 292 67.5t224 180.5h129q-98 -166 -271 -262.5t-374 -96.5q-322 0 -544 221.5 t-222 540.5zM537 600q0 -84 51 -140.5t127 -56.5q125 0 221 147.5t96 287.5q0 78 -50 135t-116 57q-135 0 -232 -141.5t-97 -288.5z" />
<glyph unicode="A" horiz-adv-x="1441" d="M12 0l639 1450h162l617 -1450h-201l-148 356h-725l-149 -356h-195zM424 516h592l-287 713h-4z" />
<glyph unicode="B" horiz-adv-x="1290" d="M180 0v1450h443q203 0 342 -86t139 -270q0 -123 -67.5 -207t-186.5 -121v-4q141 -12 234.5 -113.5t93.5 -242.5q0 -115 -49.5 -198t-134.5 -126t-179 -62.5t-203 -19.5h-432zM352 160h291q143 0 246.5 62.5t103.5 189.5q0 141 -98 202.5t-248 61.5h-295v-516zM352 836 h238q68 0 121 9t103 32.5t78 72.5t28 121q0 219 -312 219h-256v-454z" />
<glyph unicode="C" horiz-adv-x="1441" d="M96 725q0 324 209 543t529 219q338 0 512 -227l-150 -109q-63 86 -159.5 131t-202.5 45q-238 0 -395.5 -179t-157.5 -423q0 -256 155.5 -429t397.5 -173q262 0 419 203l129 -109q-188 -254 -548 -254q-313 0 -525.5 217t-212.5 545z" />
<glyph unicode="D" horiz-adv-x="1517" d="M154 0v1450h557q115 0 232.5 -40t228 -121t180 -227.5t69.5 -336.5t-69.5 -336.5t-180 -227.5t-228.5 -121t-232 -40h-557zM326 160h327q264 0 424 140t160 425t-159.5 425t-424.5 140h-327v-1130z" />
<glyph unicode="E" horiz-adv-x="1214" d="M180 0v1450h912v-160h-740v-454h690v-160h-690v-516h776v-160h-948z" />
<glyph unicode="F" d="M180 0v1450h899v-160h-727v-479h676v-160h-676v-651h-172z" />
<glyph unicode="G" horiz-adv-x="1593" d="M96 725q0 336 224.5 549t556.5 213q324 0 512 -191l-129 -135q-154 166 -396 166q-250 0 -416.5 -170t-166.5 -432t166.5 -432t433.5 -170q193 0 360 84v444h-334v160h506v-713q-244 -135 -543 -135q-340 0 -557 211t-217 551z" />
<glyph unicode="H" horiz-adv-x="1478" d="M180 0v1450h172v-614h774v614h172v-1450h-172v676h-774v-676h-172z" />
<glyph unicode="I" horiz-adv-x="532" d="M180 0v1450h172v-1450h-172z" />
<glyph unicode="J" horiz-adv-x="987" d="M6 274l172 35q37 -186 217 -186q240 0 240 311v1016h172v-1075q0 -168 -100.5 -290t-313.5 -122q-156 0 -258 79.5t-129 231.5z" />
<glyph unicode="K" horiz-adv-x="1290" d="M180 0v1450h172v-627h25l659 627h248l-717 -662l752 -788h-252l-690 737h-25v-737h-172z" />
<glyph unicode="L" horiz-adv-x="1024" d="M180 0v1450h172v-1290h664v-160h-836z" />
<glyph unicode="M" horiz-adv-x="1857" d="M180 0v1450h256l492 -1137h4l495 1137h250v-1450h-172v1217h-4l-520 -1217h-104l-521 1217h-4v-1217h-172z" />
<glyph unicode="N" horiz-adv-x="1593" d="M180 0v1450h217l840 -1204h4v1204h172v-1450h-217l-840 1204h-4v-1204h-172z" />
<glyph unicode="O" horiz-adv-x="1708" d="M96 725q0 330 214 546t544 216t544 -216t214 -546t-214 -546t-544 -216t-544 216t-214 546zM281 725q0 -254 160.5 -428t412.5 -174t412.5 174t160.5 428t-160.5 428t-412.5 174t-412.5 -174t-160.5 -428z" />
<glyph unicode="P" horiz-adv-x="1214" d="M180 0v1450h430q223 0 365.5 -93t142.5 -304q0 -113 -44 -196t-117.5 -125t-151.5 -61.5t-162 -19.5h-291v-651h-172zM352 811h291q133 0 212 60.5t79 179t-79 179t-212 60.5h-291v-479z" />
<glyph unicode="Q" horiz-adv-x="1708" d="M96 743.5q0 315.5 214 529.5t531.5 214t531.5 -214t214 -530q0 -188 -96 -356t-256 -235v-5h448v-147h-841q-317 0 -531.5 214t-214.5 529.5zM281 743.5q0 -245.5 160.5 -414.5t400 -169t400.5 169t161 414.5t-160 414.5t-401.5 169t-401 -169t-159.5 -414.5z" />
<glyph unicode="R" horiz-adv-x="1251" d="M180 0v1450h371q96 0 169 -7t153.5 -30.5t133 -65.5t87 -117t34.5 -179q0 -158 -96 -257.5t-266 -125.5l412 -668h-211l-394 651h-221v-651h-172zM352 811h154q66 0 100.5 1t96 7t96.5 21.5t72.5 41t55 68.5t17.5 101q0 74 -29.5 125t-84 74.5t-109.5 31.5t-127 8h-242 v-479z" />
<glyph unicode="S" d="M78 164l147 121q45 -78 129 -120t181 -42q121 0 218 67.5t97 184.5q0 61 -17.5 102t-70.5 75t-98.5 51.5t-155.5 53.5l-37 13q-176 57 -268 145t-92 254q0 199 144 308.5t349 109.5q260 0 406 -170l-142 -123q-82 133 -264 133q-127 0 -218 -61.5t-91 -182.5 q0 -98 64.5 -154.5t240.5 -111.5q106 -35 165.5 -59.5t131.5 -73.5t104.5 -122t32.5 -175q0 -205 -148.5 -314.5t-361.5 -109.5q-137 0 -256.5 49.5t-189.5 151.5z" />
<glyph unicode="T" horiz-adv-x="1175" d="M23 1290v160h1130v-160h-479v-1290h-172v1290h-479z" />
<glyph unicode="U" horiz-adv-x="1441" d="M174 553v897h172v-872q0 -92 18.5 -170t59.5 -144.5t116.5 -103.5t180 -37t180.5 37t117 103.5t59.5 144t18.5 170.5v872h172v-897q0 -260 -133.5 -425t-414 -165t-413.5 165t-133 425z" />
<glyph unicode="V" horiz-adv-x="1251" d="M-18 1450h194l447 -1192h4l460 1192h183l-568 -1450h-165z" />
<glyph unicode="W" horiz-adv-x="1972" d="M12 1450h191l329 -1204h5l356 1204h192l355 -1204h4l336 1204h180l-426 -1450h-186l-359 1229h-4l-360 -1229h-189z" />
<glyph unicode="X" horiz-adv-x="1290" d="M-6 0l528 764l-487 686h221l391 -567l387 567h215l-487 -686l534 -764h-227l-430 643l-432 -643h-213z" />
<glyph unicode="Y" horiz-adv-x="1216" d="M-18 1450h219l407 -655l420 655h207l-541 -825v-625h-172v625z" />
<glyph unicode="Z" horiz-adv-x="1175" d="M59 0v154l838 1136h-825v160h1034v-147l-838 -1143h848v-160h-1057z" />
<glyph unicode="[" horiz-adv-x="530" d="M57 -319v1818h338v-123h-190v-1573h190v-122h-338z" />
<glyph unicode="\" horiz-adv-x="757" d="M6 1487l129 49l617 -1573l-129 -51z" />
<glyph unicode="]" horiz-adv-x="530" d="M135 -197h191v1573h-191v123h338v-1818h-338v122z" />
<glyph unicode="^" horiz-adv-x="1363" d="M164 563l457 887h122l457 -887h-151l-367 715l-367 -715h-151z" />
<glyph unicode="_" horiz-adv-x="1024" d="M0 -154h1024v-102h-1024v102z" />
<glyph unicode="`" horiz-adv-x="491" d="M-51 1450h225l213 -295h-145z" />
<glyph unicode="a" horiz-adv-x="1062" d="M96 260q0 76 27 134.5t79 94t107.5 58t131 33t132 13.5t127.5 3h62v29q0 102 -62.5 156.5t-175.5 54.5q-172 0 -284 -105l-101 105q145 147 381 147q209 0 305.5 -100.5t96.5 -304.5v-412q0 -80 14 -166h-154q-10 43 -10 143h-4q-109 -168 -315 -168q-154 0 -255.5 75 t-101.5 210zM268 276q0 -166 211 -165q131 0 205 82.5t78 205.5v62h-160q-334 -1 -334 -185z" />
<glyph unicode="b" horiz-adv-x="1251" d="M143 0v1548h160v-729h4q141 164 344 164q223 0 363.5 -142.5t140.5 -361.5q0 -215 -138 -359.5t-341 -144.5q-125 0 -223.5 55.5t-145.5 139.5h-4v-170h-160zM303 479.5q0 -153.5 94.5 -255t246 -101.5t245.5 101.5t94 255t-94 255t-245.5 101.5t-246 -101.5t-94.5 -255z " />
<glyph unicode="c" horiz-adv-x="987" d="M96 479q0 219 138.5 361.5t357.5 142.5q229 0 369 -152l-127 -112q-96 117 -242 117q-156 0 -240 -100.5t-84 -256.5q0 -152 90.5 -254t233.5 -102q158 0 244 119l118 -113q-133 -154 -362 -154q-221 0 -358.5 140.5t-137.5 363.5z" />
<glyph unicode="d" horiz-adv-x="1251" d="M96 479q0 219 140.5 361.5t363.5 142.5q203 0 344 -164h4v729h160v-1548h-160v170h-4q-47 -84 -145.5 -139.5t-223.5 -55.5q-203 0 -341 144.5t-138 359.5zM268 479.5q0 -153.5 94.5 -255t246 -101.5t245.5 101.5t94 255t-94 255t-245.5 101.5t-246 -101.5t-94.5 -255z " />
<glyph unicode="e" d="M96 479q0 221 139.5 362.5t352.5 141.5q207 0 330.5 -133t123.5 -369v-51h-774q10 -127 98.5 -217t215.5 -90q190 0 305 145l121 -94q-154 -199 -426 -199q-219 0 -352.5 144.5t-133.5 359.5zM268 565h602q-4 123 -80.5 197t-207.5 74t-214.5 -74t-99.5 -197z" />
<glyph unicode="f" horiz-adv-x="645" d="M25 823v135h208v216q0 399 340 399q78 0 123 -25l-22 -143q-57 20 -109 20q-59 0 -96 -19.5t-52.5 -64.5t-19.5 -86t-4 -116v-181h234v-135h-234v-823h-160v823h-208z" />
<glyph unicode="g" horiz-adv-x="1251" d="M96 479q0 233 139.5 368.5t370.5 135.5q102 0 197.5 -49t140.5 -139h4v163h160v-915q0 -260 -135 -397.5t-387 -137.5q-287 0 -471 183l114 131q154 -166 357 -166q362 0 362 387v123h-4q-55 -88 -146 -133t-192 -45q-225 0 -367.5 139t-142.5 352zM268 479 q0 -145 98.5 -244.5t239.5 -99.5q158 0 250 101.5t92 246.5q0 156 -95 254.5t-247 98.5q-150 0 -244 -102.5t-94 -254.5z" />
<glyph unicode="h" d="M152 0v1548h159v-723h4q35 63 119 110.5t189 47.5q182 0 273 -105.5t91 -285.5v-592h-160v575q0 123 -55 192t-164 69q-150 0 -223.5 -98.5t-73.5 -270.5v-467h-159z" />
<glyph unicode="i" horiz-adv-x="491" d="M129 1333q0 47 34 82t83 35t82.5 -35t33.5 -82q0 -51 -32.5 -83.5t-83.5 -32.5t-84 32.5t-33 83.5zM166 0v958h160v-958h-160z" />
<glyph unicode="j" horiz-adv-x="491" d="M-70 -471l19 139q39 -12 78 -12q82 0 110.5 52t28.5 151v1099h160v-1173q0 -43 -12.5 -86t-40 -88t-88 -74t-144.5 -29q-68 1 -111 21zM129 1333q0 47 34 82t83 35t82.5 -35t33.5 -82q0 -51 -32.5 -83.5t-83.5 -32.5t-84 32.5t-33 83.5z" />
<glyph unicode="k" horiz-adv-x="1024" d="M152 0v1548h159v-1011l437 421h227l-463 -436l510 -522h-236l-475 504v-504h-159z" />
<glyph unicode="l" horiz-adv-x="491" d="M166 0v1548h160v-1548h-160z" />
<glyph unicode="m" horiz-adv-x="1744" d="M143 958h152q0 -25 2 -78t2 -79h4q35 76 121 129t199 53q217 0 303 -182q113 182 303 182q197 0 280.5 -102.5t83.5 -298.5v-582h-159v573q0 262 -234 263q-104 0 -176 -78t-72 -205v-553h-159v543q0 158 -43 225.5t-142 67.5q-150 0 -223.5 -98.5t-73.5 -270.5v-467 h-159v731q0 47 -4.5 122.5t-4.5 104.5z" />
<glyph unicode="n" d="M143 958h152q0 -25 2 -78t2 -79h4q35 76 121 129t199 53q182 0 273 -105.5t91 -285.5v-592h-160v575q0 123 -55 192t-164 69q-150 0 -223.5 -98.5t-73.5 -270.5v-467h-159v731q0 47 -4.5 122.5t-4.5 104.5z" />
<glyph unicode="o" horiz-adv-x="1216" d="M96 479q0 223 144.5 363.5t367.5 140.5t367.5 -140.5t144.5 -363.5t-144.5 -363.5t-367.5 -140.5t-367.5 140.5t-144.5 363.5zM268 479.5q0 -153.5 94.5 -255t246 -101.5t245.5 101.5t94 255t-94 255t-245.5 101.5t-246 -101.5t-94.5 -255z" />
<glyph unicode="p" horiz-adv-x="1251" d="M143 -467v1425h160v-139h4q141 164 344 164q223 0 363.5 -142.5t140.5 -361.5q0 -215 -138 -359.5t-341 -144.5q-125 0 -223.5 55.5t-145.5 139.5h-4v-637h-160zM303 479.5q0 -153.5 94.5 -255t246 -101.5t245.5 101.5t94 255t-94 255t-245.5 101.5t-246 -101.5 t-94.5 -255z" />
<glyph unicode="q" horiz-adv-x="1251" d="M96 479q0 215 138.5 359.5t340.5 144.5q125 0 223.5 -55.5t145.5 -139.5h4v170h160v-1425h-160v606h-4q-141 -164 -344 -164q-223 0 -363.5 142.5t-140.5 361.5zM268 479.5q0 -153.5 94.5 -255t246 -101.5t245.5 101.5t94 255t-94 255t-245.5 101.5t-246 -101.5 t-94.5 -255z" />
<glyph unicode="r" horiz-adv-x="720" d="M143 958h152q0 -25 2 -78t2 -79h4q35 76 121 129t199 53q37 0 65 -10l-10 -162q-39 12 -86 12q-281 0 -281 -356v-467h-159v731q0 47 -4.5 122.5t-4.5 104.5z" />
<glyph unicode="s" horiz-adv-x="872" d="M45 154l127 98q104 -129 246 -129q84 0 147.5 37t63.5 110q0 37 -16.5 63.5t-49.5 43t-62.5 26t-76.5 19.5q-86 20 -132 34.5t-101.5 44t-80 79t-24.5 120.5q0 133 106.5 208t251.5 75q233 0 326 -174l-133 -88q-70 115 -203 115q-74 0 -131 -35t-57 -99q0 -92 241 -139 q150 -29 232 -91t82 -196q0 -152 -111.5 -226.5t-271.5 -74.5q-127 0 -216 40.5t-157 138.5z" />
<glyph unicode="t" horiz-adv-x="720" d="M25 823v135h208v273h160v-273h283v-135h-283v-479q0 -47 1 -71.5t8.5 -58.5t22.5 -50.5t43 -28.5t69 -12q78 0 141 33l6 -146q-78 -35 -186 -35q-160 0 -212.5 78t-52.5 244v526h-208z" />
<glyph unicode="u" d="M152 367v591h159v-575q0 -123 55.5 -191.5t163.5 -68.5q150 0 223.5 98t73.5 271v466h160v-731q0 -47 4 -122.5t4 -104.5h-151q0 25 -2 78t-2 80h-4q-35 -76 -121 -129.5t-199 -53.5q-182 0 -273 106t-91 286z" />
<glyph unicode="v" horiz-adv-x="987" d="M20 958h187l299 -751h4l285 751h172l-379 -958h-176z" />
<glyph unicode="w" horiz-adv-x="1517" d="M29 958h176l219 -737h4l248 737h168l252 -737h4l217 737h172l-309 -958h-158l-272 737h-5l-241 -737h-164z" />
<glyph unicode="x" horiz-adv-x="1024" d="M6 0l393 516l-344 442h209l254 -344l240 344h194l-329 -442l395 -516h-211l-303 414l-299 -414h-199z" />
<glyph unicode="y" horiz-adv-x="987" d="M20 958h187l297 -751h4l285 751h174l-463 -1177q-55 -141 -121 -207t-199 -66q-92 0 -143 25l20 139q43 -16 113 -16q72 0 111 39t67 119l66 180z" />
<glyph unicode="z" horiz-adv-x="909" d="M61 0v125l564 698h-539v135h748v-122l-564 -701h578v-135h-787z" />
<glyph unicode="{" horiz-adv-x="681" d="M68 528v123q68 0 122 65.5t54 166.5v360q0 117 67.5 186.5t147.5 69.5h143v-123h-110q-100 0 -101 -162v-360q0 -121 -59.5 -184.5t-116.5 -77.5v-4q57 -8 116.5 -69.5t59.5 -194.5v-359q0 -162 101 -162h110v-122h-143q-84 0 -149.5 69.5t-65.5 186.5v358 q0 104 -53 168.5t-123 64.5z" />
<glyph unicode="|" horiz-adv-x="454" d="M160 -512v2048h135v-2048h-135z" />
<glyph unicode="}" horiz-adv-x="681" d="M80 -197h110q100 0 101 162v359q0 133 59.5 194.5t116.5 69.5v4q-57 14 -116.5 77.5t-59.5 184.5v360q0 162 -101 162h-110v123h143q80 0 147.5 -69.5t67.5 -186.5v-360q0 -100 54.5 -166t121.5 -66v-123q-70 0 -123 -64.5t-53 -168.5v-358q0 -117 -65.5 -186.5 t-149.5 -69.5h-143v122z" />
<glyph unicode="~" horiz-adv-x="1363" d="M211 578q41 57 66.5 87.5t78 61.5t111.5 31q74 0 209 -62q10 -4 54 -25.5t62.5 -28.5t53.5 -15.5t65 -8.5q104 0 174 144l68 -98q-43 -59 -68.5 -88t-78 -61t-111.5 -32q-74 0 -209 62q-10 4 -54 25.5t-62.5 28.5t-53.5 15.5t-65 8.5q-106 0 -172 -144z" />
<glyph unicode="&#xa1;" horiz-adv-x="569" d="M162 885q0 49 37 86t86 37t86 -37t37 -86q0 -51 -36 -87t-87.5 -36t-87 36t-35.5 87zM199 -455v1045h172v-1045h-172z" />
<glyph unicode="&#xa2;" d="M137 479q0 203 119 341t311 157v141h99v-135q207 -10 335 -152l-127 -112q-86 104 -208 117v-713q131 8 211 119l118 -113q-119 -139 -329 -154v-135h-99v135q-195 25 -312.5 162t-117.5 342zM309 479q0 -131 71 -229t187 -125v706q-125 -25 -191.5 -121t-66.5 -231z" />
<glyph unicode="&#xa3;" d="M117 0v160h221v516h-197v135h197v164q0 254 120 377t318 123q203 0 330 -127l-113 -121q-104 100 -221 100q-143 0 -202.5 -92t-59.5 -264v-160h332v-135h-332v-516h504v-160h-897z" />
<glyph unicode="&#xa4;" d="M57 303l111 113q-111 139 -111 309q0 178 111 311l-111 111l90 90l111 -109q141 109 311 109t312 -109l110 109l90 -90l-110 -111q111 -133 110 -311q0 -170 -110 -309l110 -113l-90 -90l-110 113q-145 -113 -311.5 -113t-311.5 113l-111 -113zM217 725 q0 -143 104.5 -254t248 -111t248 111t104.5 254q0 150 -104.5 257.5t-248 107.5t-248 -107.5t-104.5 -257.5z" />
<glyph unicode="&#xa5;" d="M0 1450h205l364 -670l365 670h205l-391 -670h233v-123h-307l-19 -32v-146h326v-123h-326v-356h-172v356h-325v123h325v146l-18 32h-307v123h233z" />
<glyph unicode="&#xa6;" horiz-adv-x="454" d="M160 358h135v-716h-135v716zM160 666v716h135v-716h-135z" />
<glyph unicode="&#xa7;" d="M115 -43l157 74q53 -178 258 -178q94 0 158 47t64 141q0 16 -4.5 32.5t-8.5 29t-16 26.5t-18.5 22.5t-23.5 20.5t-23.5 17.5t-28.5 16.5l-27 13l-29 14q-25 12 -26 13l-250 131q-150 78 -150 250q0 186 207 286q-158 90 -157 242q0 156 116.5 244t276.5 88q117 0 215 -48 t143 -145l-153 -84q-23 63 -81.5 96t-129.5 33q-88 0 -151.5 -45t-63.5 -131q0 -100 90 -147l200 -101q70 -33 112 -57t95.5 -66t79 -95.5t25.5 -118.5q0 -174 -176 -273q141 -92 141 -252q0 -166 -124 -257t-294 -91q-139 0 -246.5 63.5t-156.5 188.5zM307 653 q0 -37 14.5 -67.5t45 -54t53 -36t63.5 -32.5l183 -88q53 23 93 73t40 105q0 41 -17.5 75t-51.5 61.5t-60.5 44t-69.5 36.5l-119 59q-41 -16 -62.5 -27t-52 -32.5t-45 -50.5t-14.5 -66z" />
<glyph unicode="&#xa8;" horiz-adv-x="491" d="M-68 1290q0 45 33 78t78 33t78 -33t33 -78t-32 -77.5t-79 -32.5t-79 32.5t-32 77.5zM338 1290q0 45 32.5 78t78 33t78 -33t32.5 -78t-31.5 -77.5t-79 -32.5t-79 32.5t-31.5 77.5z" />
<glyph unicode="&#xa9;" horiz-adv-x="1638" d="M57 725q0 322 223.5 542t538.5 220q313 0 537.5 -220t224.5 -542t-224 -542t-538 -220q-315 0 -538.5 220t-223.5 542zM193 725q0 -276 181 -463.5t445 -187.5q262 0 444.5 188.5t182.5 462.5t-182.5 462.5t-444.5 188.5q-264 0 -445 -187.5t-181 -463.5zM395 725 q0 207 121 336t328 129q150 0 255 -81t128 -228h-125q-16 86 -87 142t-169 56q-147 0 -231.5 -99t-84.5 -255q0 -147 89.5 -251.5t230.5 -104.5q100 0 168.5 59t83.5 150h127q-33 -147 -135.5 -233.5t-243.5 -86.5q-205 0 -330 132t-125 335z" />
<glyph unicode="&#xaa;" horiz-adv-x="690" d="M68 1049q0 55 27.5 93t63.5 57.5t95 29.5t97 12t93 2h48v29q0 33 -40 62.5t-110 29.5q-57 0 -108.5 -19.5t-73.5 -44.5l-64 86q94 88 246 89q143 0 207.5 -60.5t64.5 -183.5v-262q0 -27 9 -88h-125q-6 49 -6 92h-5q-51 -104 -204 -105q-98 0 -156.5 46.5t-58.5 134.5z M203 1051q0 -33 32.5 -52.5t83.5 -19.5q78 0 125.5 41t47.5 90v35h-99q-190 0 -190 -94z" />
<glyph unicode="&#xab;" horiz-adv-x="1024" d="M119 492l293 438l112 -74l-239 -364l239 -365l-112 -74zM500 492l293 438l112 -74l-239 -364l239 -365l-112 -74z" />
<glyph unicode="&#xac;" horiz-adv-x="1363" d="M147 713v135h1070v-569h-136v434h-934z" />
<glyph unicode="&#xad;" horiz-adv-x="681" d="M90 418v147h502v-147h-502z" />
<glyph unicode="&#xae;" horiz-adv-x="1638" d="M57 725q0 322 223.5 542t538.5 220q313 0 537.5 -220t224.5 -542t-224 -542t-538 -220q-315 0 -538.5 220t-223.5 542zM193 725q0 -276 181 -463.5t445 -187.5q262 0 444.5 188.5t182.5 462.5t-182.5 462.5t-444.5 188.5q-264 0 -445 -187.5t-181 -463.5zM528 281v890 h336q311 0 312 -253q0 -219 -236 -244l256 -393h-145l-242 383h-145v-383h-136zM664 774h139q57 0 90 4t72 17.5t57 45t18 83.5q0 57 -32.5 90t-71.5 40t-94 7h-178v-287z" />
<glyph unicode="&#xaf;" horiz-adv-x="491" d="M-37 1229v123h565v-123h-565z" />
<glyph unicode="&#xb0;" horiz-adv-x="819" d="M117 1182q0 123 85 208t207.5 85t207.5 -85t85 -208t-85 -208t-207.5 -85t-207.5 85t-85 208zM227 1181.5q0 -67.5 52.5 -125t130 -57.5t130 57.5t52.5 125t-52.5 125t-130 57.5t-130 -57.5t-52.5 -125z" />
<glyph unicode="&#xb1;" horiz-adv-x="1363" d="M147 86v135h1070v-135h-1070zM147 676v135h467v344h136v-344h467v-135h-467v-344h-136v344h-467z" />
<glyph unicode="&#xb2;" horiz-adv-x="739" d="M66 592v119l344 309q66 59 93 99t27 100q0 66 -43 105.5t-104 39.5q-66 0 -112 -37t-58 -100l-129 10q18 119 97 178.5t198 59.5q125 0 206 -66t81 -190q0 -66 -30 -124.5t-60.5 -90t-92.5 -84.5l-245 -213v-5h436v-110h-608z" />
<glyph unicode="&#xb3;" horiz-adv-x="739" d="M63 768l111 47q47 -125 191 -125q74 0 125 38t51 106q0 158 -222 157h-32v111h35q43 0 79.5 8t72.5 42t36 91q0 121 -145 121q-123 0 -166 -86l-113 51q72 145 279 146q119 0 199.5 -60.5t80.5 -167.5q0 -68 -45 -123t-117 -75v-5q88 -12 140.5 -72.5t52.5 -144.5 q0 -117 -89 -182t-222 -65q-241 0 -302 188z" />
<glyph unicode="&#xb4;" horiz-adv-x="491" d="M104 1155l213 295h226l-293 -295h-146z" />
<glyph unicode="&#xb5;" d="M152 -467v1425h159v-575q0 -123 55.5 -191.5t163.5 -68.5q150 0 223.5 98t73.5 271v466h160v-731q0 -47 4 -122.5t4 -104.5h-151q0 25 -2 78t-2 80h-4q-35 -76 -121 -129.5t-199 -53.5q-117 0 -205 52v-494h-159z" />
<glyph unicode="&#xb6;" horiz-adv-x="1228" d="M170 1028q0 199 125 310.5t342 111.5h498v-1708h-148v1573h-242v-1573h-147v905q-186 0 -307 109.5t-121 271.5z" />
<glyph unicode="&#xb7;" horiz-adv-x="569" d="M162 633q0 51 35.5 87t87 36t87.5 -36t36 -87q0 -49 -37 -86t-86 -37t-86 37t-37 86z" />
<glyph unicode="&#xb8;" horiz-adv-x="491" d="M25 -401l34 75q72 -33 148 -32q49 0 87 19.5t38 64.5q0 39 -33 58t-74 19q-31 0 -80 -16l-41 39l127 174h93l-93 -131q6 0 18.5 3t26 4t27.5 1q61 0 112.5 -37t51.5 -104q0 -90 -71.5 -135t-168.5 -45q-110 0 -202 43z" />
<glyph unicode="&#xb9;" horiz-adv-x="739" d="M117 1272l254 190h118v-870h-135v721h-4l-166 -135z" />
<glyph unicode="&#xba;" horiz-adv-x="790" d="M61 1174q0 133 94.5 217t240 84t239.5 -84t94 -217q0 -137 -94 -221.5t-239.5 -84.5t-240 84.5t-94.5 221.5zM197 1174q0 -80 55 -137.5t143 -57.5t143.5 57.5t55.5 137.5q0 76 -55.5 133t-143.5 57t-143 -57t-55 -133z" />
<glyph unicode="&#xbb;" horiz-adv-x="1024" d="M119 127l239 365l-239 364l112 74l293 -438l-293 -439zM500 127l239 365l-239 364l112 74l293 -438l-293 -439z" />
<glyph unicode="&#xbc;" horiz-adv-x="1708" d="M80 1272l254 190h119v-870h-136v723h-4l-166 -137zM305 0l909 1516l113 -66l-909 -1516zM979 184v129l375 557h159v-575h115v-111h-115v-184h-135v184h-399zM1102 295h276v416h-4z" />
<glyph unicode="&#xbd;" horiz-adv-x="1708" d="M68 1272l254 190h118v-870h-135v723h-4l-166 -137zM270 0l910 1516l112 -66l-909 -1516zM1032 0v119l344 309q66 59 93.5 99t27.5 100q0 66 -43 105.5t-104 39.5q-66 0 -112 -37t-58 -100l-129 10q18 119 97 178.5t198 59.5q125 0 205.5 -65.5t80.5 -190.5 q0 -66 -29.5 -124.5t-60.5 -90t-92 -84.5l-246 -213v-4h436v-111h-608z" />
<glyph unicode="&#xbe;" horiz-adv-x="1708" d="M51 768l113 47q47 -125 190 -125q74 0 125 38t51 106q0 158 -221 157h-33v111h33q190 0 191 141q0 121 -146 121q-123 0 -166 -86l-112 51q72 145 278 146q119 0 200 -60.5t81 -167.5q0 -68 -45 -123t-117 -75v-5q88 -12 140.5 -72.5t52.5 -144.5q0 -117 -89.5 -182 t-222.5 -65q-240 0 -303 188zM385 0l909 1516l113 -66l-909 -1516zM1008 184v129l374 557h160v-575h115v-111h-115v-184h-135v184h-399zM1130 295h277v416h-4l-273 -412v-4z" />
<glyph unicode="&#xbf;" horiz-adv-x="987" d="M96 -127q0 66 16.5 119t57.5 106.5t68.5 82t91.5 87.5q63 61 80.5 100.5t17.5 127.5v94h172v-129q0 -106 -25.5 -152.5t-115.5 -136.5l-36 -36q-28 -28 -37 -38t-31.5 -35.5t-31 -42t-21.5 -41t-17 -49t-4 -51.5q0 -100 58 -161.5t158.5 -61.5t167 60.5t83.5 162.5 l184 -20q-27 -164 -146.5 -257.5t-289.5 -93.5q-174 0 -287 96.5t-113 268.5zM391 885q0 49 37 86t86 37t86 -37t37 -86q0 -51 -36 -87t-87 -36t-87 36t-36 87z" />
<glyph unicode="&#xc0;" horiz-adv-x="1441" d="M12 0l639 1450h162l617 -1450h-201l-148 356h-725l-149 -356h-195zM424 516h592l-287 713h-4zM424 1847h225l213 -295h-145z" />
<glyph unicode="&#xc1;" horiz-adv-x="1441" d="M12 0l639 1450h162l617 -1450h-201l-148 356h-725l-149 -356h-195zM424 516h592l-287 713h-4zM580 1552l213 295h225l-293 -295h-145z" />
<glyph unicode="&#xc2;" horiz-adv-x="1441" d="M12 0l639 1450h162l617 -1450h-201l-148 356h-725l-149 -356h-195zM399 1552l228 295h186l229 -295h-165l-162 209l-160 -209h-156zM424 516h592l-287 713h-4z" />
<glyph unicode="&#xc3;" horiz-adv-x="1441" d="M12 0l639 1450h162l617 -1450h-201l-148 356h-725l-149 -356h-195zM379 1577q14 88 67.5 150.5t137.5 62.5q57 0 172 -47q10 -4 27.5 -12.5t27.5 -12.5t25.5 -7t29.5 -3q72 0 99 90h98q-14 -90 -60.5 -151.5t-130.5 -61.5q-57 0 -165 43q-96 39 -136 39q-70 0 -94 -90 h-98zM424 516h592l-287 713h-4z" />
<glyph unicode="&#xc4;" horiz-adv-x="1441" d="M12 0l639 1450h162l617 -1450h-201l-148 356h-725l-149 -356h-195zM408 1687.5q0 45.5 32.5 78t77.5 32.5t78 -32.5t33 -78t-32 -78t-79 -32.5t-78.5 32.5t-31.5 78zM424 516h592l-287 713h-4zM813 1687.5q0 45.5 33 78t78 32.5t77.5 -32.5t32.5 -78t-31.5 -78 t-78.5 -32.5t-79 32.5t-32 78z" />
<glyph unicode="&#xc5;" horiz-adv-x="1441" d="M12 0l639 1450h162l617 -1450h-201l-148 356h-725l-149 -356h-195zM424 516h592l-287 713h-4zM518 1698q0 82 58.5 142.5t144.5 60.5q88 0 145.5 -59.5t57.5 -143.5t-58.5 -143.5t-144.5 -59.5t-144.5 59.5t-58.5 143.5zM604 1698q0 -49 36 -83t81 -34t81 34t36 83 q0 47 -36 82t-81 35t-81 -35t-36 -82z" />
<glyph unicode="&#xc6;" horiz-adv-x="1933" d="M-20 0l942 1450h890v-160h-602v-454h566v-160h-566v-516h627v-160h-799v393h-600l-252 -393h-206zM541 553h497v737h-24z" />
<glyph unicode="&#xc7;" horiz-adv-x="1441" d="M96 725q0 324 209 543t529 219q338 0 512 -227l-150 -109q-63 86 -159.5 131t-202.5 45q-238 0 -395.5 -179t-157.5 -423q0 -256 155.5 -429t397.5 -173q262 0 419 203l129 -109q-188 -254 -548 -254l-66 -94q6 0 18.5 3t25.5 4t28 1q61 0 112.5 -37t51.5 -104 q0 -90 -72 -135t-168 -45q-111 0 -203 43l35 75q72 -33 147 -32q49 0 87 19.5t38 64.5q0 39 -32.5 58t-73.5 19q-31 0 -80 -16l-41 39l104 143q-281 29 -465 240t-184 516z" />
<glyph unicode="&#xc8;" horiz-adv-x="1214" d="M180 0v1450h912v-160h-740v-454h690v-160h-690v-516h776v-160h-948zM311 1847h226l213 -295h-146z" />
<glyph unicode="&#xc9;" horiz-adv-x="1214" d="M180 0v1450h912v-160h-740v-454h690v-160h-690v-516h776v-160h-948zM467 1552l213 295h225l-293 -295h-145z" />
<glyph unicode="&#xca;" horiz-adv-x="1214" d="M180 0v1450h912v-160h-740v-454h690v-160h-690v-516h776v-160h-948zM287 1552l227 295h186l230 -295h-166l-162 209l-160 -209h-155z" />
<glyph unicode="&#xcb;" horiz-adv-x="1214" d="M180 0v1450h912v-160h-740v-454h690v-160h-690v-516h776v-160h-948zM295 1687.5q0 45.5 32.5 78t78 32.5t78 -32.5t32.5 -78t-32.5 -78t-78 -32.5t-78 32.5t-32.5 78zM700 1687.5q0 45.5 33 78t78 32.5t78 -32.5t33 -78t-33 -78t-78 -32.5t-78 32.5t-33 78z" />
<glyph unicode="&#xcc;" horiz-adv-x="532" d="M-31 1847h226l213 -295h-146zM180 0v1450h172v-1450h-172z" />
<glyph unicode="&#xcd;" horiz-adv-x="532" d="M125 1552l213 295h225l-293 -295h-145zM180 0v1450h172v-1450h-172z" />
<glyph unicode="&#xce;" horiz-adv-x="532" d="M-55 1552l227 295h186l230 -295h-166l-162 209l-160 -209h-155zM180 0v1450h172v-1450h-172z" />
<glyph unicode="&#xcf;" horiz-adv-x="532" d="M-47 1687.5q0 45.5 32.5 78t78 32.5t78 -32.5t32.5 -78t-31.5 -78t-79 -32.5t-79 32.5t-31.5 78zM180 0v1450h172v-1450h-172zM358 1687.5q0 45.5 33 78t78 32.5t78 -32.5t33 -78t-32 -78t-79 -32.5t-79 32.5t-32 78z" />
<glyph unicode="&#xd0;" horiz-adv-x="1517" d="M6 688v135h148v627h557q115 0 232.5 -40t228 -121t180 -227.5t69.5 -336.5t-69.5 -336.5t-180 -227.5t-228.5 -121t-232 -40h-557v688h-148zM326 160h327q264 0 424 140t160 425t-159.5 425t-424.5 140h-327v-467h516v-135h-516v-528z" />
<glyph unicode="&#xd1;" horiz-adv-x="1593" d="M180 0v1450h217l840 -1204h4v1204h172v-1450h-217l-840 1204h-4v-1204h-172zM455 1577q14 88 67 150.5t137 62.5q57 0 172 -47q86 -35 111 -35q72 0 98 90h99q-14 -90 -60.5 -151.5t-130.5 -61.5q-59 0 -166 43q-98 39 -135 39q-70 0 -94 -90h-98z" />
<glyph unicode="&#xd2;" horiz-adv-x="1708" d="M96 725q0 330 214 546t544 216t544 -216t214 -546t-214 -546t-544 -216t-544 216t-214 546zM281 725q0 -254 160.5 -428t412.5 -174t412.5 174t160.5 428t-160.5 428t-412.5 174t-412.5 -174t-160.5 -428zM557 1847h225l213 -295h-145z" />
<glyph unicode="&#xd3;" horiz-adv-x="1708" d="M96 725q0 330 214 546t544 216t544 -216t214 -546t-214 -546t-544 -216t-544 216t-214 546zM281 725q0 -254 160.5 -428t412.5 -174t412.5 174t160.5 428t-160.5 428t-412.5 174t-412.5 -174t-160.5 -428zM713 1552l213 295h225l-293 -295h-145z" />
<glyph unicode="&#xd4;" horiz-adv-x="1708" d="M96 725q0 330 214 546t544 216t544 -216t214 -546t-214 -546t-544 -216t-544 216t-214 546zM281 725q0 -254 160.5 -428t412.5 -174t412.5 174t160.5 428t-160.5 428t-412.5 174t-412.5 -174t-160.5 -428zM532 1552l228 295h186l230 -295h-166l-162 209l-160 -209h-156z " />
<glyph unicode="&#xd5;" horiz-adv-x="1708" d="M96 725q0 330 214 546t544 216t544 -216t214 -546t-214 -546t-544 -216t-544 216t-214 546zM281 725q0 -254 160.5 -428t412.5 -174t412.5 174t160.5 428t-160.5 428t-412.5 174t-412.5 -174t-160.5 -428zM512 1577q14 88 67.5 150.5t137.5 62.5q57 0 172 -47 q86 -35 110 -35q72 0 99 90h98q-14 -90 -60 -151.5t-130 -61.5q-59 0 -166 43q-98 39 -135 39q-70 0 -95 -90h-98z" />
<glyph unicode="&#xd6;" horiz-adv-x="1708" d="M96 725q0 330 214 546t544 216t544 -216t214 -546t-214 -546t-544 -216t-544 216t-214 546zM281 725q0 -254 160.5 -428t412.5 -174t412.5 174t160.5 428t-160.5 428t-412.5 174t-412.5 -174t-160.5 -428zM541 1687.5q0 45.5 32.5 78t77.5 32.5t78 -32.5t33 -78t-33 -78 t-78 -32.5t-77.5 32.5t-32.5 78zM946 1687.5q0 45.5 33 78t78 32.5t77.5 -32.5t32.5 -78t-32.5 -78t-77.5 -32.5t-78 32.5t-33 78z" />
<glyph unicode="&#xd7;" horiz-adv-x="1363" d="M188 223l396 398l-396 393l101 100l393 -395l395 395l99 -96l-398 -397l398 -394l-99 -100l-395 397l-395 -397z" />
<glyph unicode="&#xd8;" horiz-adv-x="1708" d="M96 725q0 330 214 546t544 216q270 0 471 -154l162 178l86 -77l-162 -177q201 -213 201 -532q0 -330 -214 -546t-544 -216q-283 0 -483 162l-166 -180l-82 78l166 180q-193 211 -193 522zM281 725q0 -227 129 -389l798 870q-150 121 -354 121q-252 0 -412.5 -174 t-160.5 -428zM489 254q152 -131 365 -131q252 0 412.5 174t160.5 428q0 236 -137 401z" />
<glyph unicode="&#xd9;" horiz-adv-x="1441" d="M174 553v897h172v-872q0 -92 18.5 -170t59.5 -144.5t116.5 -103.5t180 -37t180.5 37t117 103.5t59.5 144t18.5 170.5v872h172v-897q0 -260 -133.5 -425t-414 -165t-413.5 165t-133 425zM424 1847h225l213 -295h-145z" />
<glyph unicode="&#xda;" horiz-adv-x="1441" d="M174 553v897h172v-872q0 -92 18.5 -170t59.5 -144.5t116.5 -103.5t180 -37t180.5 37t117 103.5t59.5 144t18.5 170.5v872h172v-897q0 -260 -133.5 -425t-414 -165t-413.5 165t-133 425zM580 1552l213 295h225l-293 -295h-145z" />
<glyph unicode="&#xdb;" horiz-adv-x="1441" d="M174 553v897h172v-872q0 -92 18.5 -170t59.5 -144.5t116.5 -103.5t180 -37t180.5 37t117 103.5t59.5 144t18.5 170.5v872h172v-897q0 -260 -133.5 -425t-414 -165t-413.5 165t-133 425zM399 1552l228 295h186l229 -295h-165l-162 209l-160 -209h-156z" />
<glyph unicode="&#xdc;" horiz-adv-x="1441" d="M174 553v897h172v-872q0 -92 18.5 -170t59.5 -144.5t116.5 -103.5t180 -37t180.5 37t117 103.5t59.5 144t18.5 170.5v872h172v-897q0 -260 -133.5 -425t-414 -165t-413.5 165t-133 425zM408 1687.5q0 45.5 32.5 78t77.5 32.5t78 -32.5t33 -78t-32 -78t-79 -32.5 t-78.5 32.5t-31.5 78zM813 1687.5q0 45.5 33 78t78 32.5t77.5 -32.5t32.5 -78t-31.5 -78t-78.5 -32.5t-79 32.5t-32 78z" />
<glyph unicode="&#xdd;" horiz-adv-x="1216" d="M-18 1450h219l407 -655l420 655h207l-541 -825v-625h-172v625zM467 1552l213 295h225l-293 -295h-145z" />
<glyph unicode="&#xde;" horiz-adv-x="1214" d="M180 0v1450h172v-256h258q223 0 365.5 -93t142.5 -304q0 -113 -44 -196t-117.5 -125t-151.5 -61.5t-162 -19.5h-291v-395h-172zM352 555h291q133 0 212 60.5t79 179t-79 179t-212 60.5h-291v-479z" />
<glyph unicode="&#xdf;" horiz-adv-x="1214" d="M152 0v1106q0 205 110.5 336t337.5 131q174 0 287.5 -97.5t113.5 -267.5q0 -117 -58 -200.5t-167 -122.5v-4q164 -16 256 -139.5t92 -295.5q0 -213 -138 -342t-351 -129q-74 0 -127 19v145q47 -16 106 -16q154 0 246 93t92 245q0 162 -100 255t-262 93h-47v135h45 q113 0 183.5 66.5t70.5 179.5q0 109 -71 172t-179 63q-281 0 -281 -333v-1092h-159z" />
<glyph unicode="&#xe0;" horiz-adv-x="1062" d="M96 260q0 76 27 134.5t79 94t107.5 58t131 33t132 13.5t127.5 3h62v29q0 102 -62.5 156.5t-175.5 54.5q-172 0 -284 -105l-101 105q145 147 381 147q209 0 305.5 -100.5t96.5 -304.5v-412q0 -80 14 -166h-154q-10 43 -10 143h-4q-109 -168 -315 -168q-154 0 -255.5 75 t-101.5 210zM236 1483h225l213 -295h-146zM268 276q0 -166 211 -165q131 0 205 82.5t78 205.5v62h-160q-334 -1 -334 -185z" />
<glyph unicode="&#xe1;" horiz-adv-x="1062" d="M96 260q0 76 27 134.5t79 94t107.5 58t131 33t132 13.5t127.5 3h62v29q0 102 -62.5 156.5t-175.5 54.5q-172 0 -284 -105l-101 105q145 147 381 147q209 0 305.5 -100.5t96.5 -304.5v-412q0 -80 14 -166h-154q-10 43 -10 143h-4q-109 -168 -315 -168q-154 0 -255.5 75 t-101.5 210zM268 276q0 -166 211 -165q131 0 205 82.5t78 205.5v62h-160q-334 -1 -334 -185zM391 1188l213 295h225l-292 -295h-146z" />
<glyph unicode="&#xe2;" horiz-adv-x="1062" d="M96 260q0 76 27 134.5t79 94t107.5 58t131 33t132 13.5t127.5 3h62v29q0 102 -62.5 156.5t-175.5 54.5q-172 0 -284 -105l-101 105q145 147 381 147q209 0 305.5 -100.5t96.5 -304.5v-412q0 -80 14 -166h-154q-10 43 -10 143h-4q-109 -168 -315 -168q-154 0 -255.5 75 t-101.5 210zM211 1188l227 295h187l229 -295h-166l-162 209l-159 -209h-156zM268 276q0 -166 211 -165q131 0 205 82.5t78 205.5v62h-160q-334 -1 -334 -185z" />
<glyph unicode="&#xe3;" horiz-adv-x="1062" d="M96 260q0 76 27 134.5t79 94t107.5 58t131 33t132 13.5t127.5 3h62v29q0 102 -62.5 156.5t-175.5 54.5q-172 0 -284 -105l-101 105q145 147 381 147q209 0 305.5 -100.5t96.5 -304.5v-412q0 -80 14 -166h-154q-10 43 -10 143h-4q-109 -168 -315 -168q-154 0 -255.5 75 t-101.5 210zM190 1212q14 88 67.5 150.5t137.5 62.5q57 0 172 -47q10 -4 27.5 -12t28 -12t26 -7.5t29.5 -3.5q72 0 98 91h98q-14 -90 -60 -151.5t-130 -61.5q-57 0 -166 43q-96 39 -135 39q-70 0 -94 -91h-99zM268 276q0 -166 211 -165q131 0 205 82.5t78 205.5v62h-160 q-334 -1 -334 -185z" />
<glyph unicode="&#xe4;" horiz-adv-x="1062" d="M96 260q0 76 27 134.5t79 94t107.5 58t131 33t132 13.5t127.5 3h62v29q0 102 -62.5 156.5t-175.5 54.5q-172 0 -284 -105l-101 105q145 147 381 147q209 0 305.5 -100.5t96.5 -304.5v-412q0 -80 14 -166h-154q-10 43 -10 143h-4q-109 -168 -315 -168q-154 0 -255.5 75 t-101.5 210zM219 1323q0 45 33 78t78 33t77.5 -33t32.5 -78t-31.5 -78t-78.5 -33t-79 33t-32 78zM268 276q0 -166 211 -165q131 0 205 82.5t78 205.5v62h-160q-334 -1 -334 -185zM625 1323q0 45 32.5 78t77.5 33t78 -33t33 -78t-32 -78t-79 -33t-78.5 33t-31.5 78z" />
<glyph unicode="&#xe5;" horiz-adv-x="1062" d="M96 260q0 76 27 134.5t79 94t107.5 58t131 33t132 13.5t127.5 3h62v29q0 102 -62.5 156.5t-175.5 54.5q-172 0 -284 -105l-101 105q145 147 381 147q209 0 305.5 -100.5t96.5 -304.5v-412q0 -80 14 -166h-154q-10 43 -10 143h-4q-109 -168 -315 -168q-154 0 -255.5 75 t-101.5 210zM268 276q0 -166 211 -165q131 0 205 82.5t78 205.5v62h-160q-334 -1 -334 -185zM330 1354q0 82 58 142t144 60q88 0 145.5 -59t57.5 -143t-58.5 -143.5t-144.5 -59.5t-144 59.5t-58 143.5zM416 1354q0 -49 35.5 -83t81 -34t81 34t35.5 83q0 47 -35.5 81.5 t-81 34.5t-81 -34.5t-35.5 -81.5z" />
<glyph unicode="&#xe6;" horiz-adv-x="1744" d="M96 264q0 301 479 301h197v25q0 109 -61.5 177.5t-178.5 68.5q-154 0 -280 -95l-102 107q158 135 382 135q233 0 332 -162q154 162 340 162q207 0 331 -133t124 -369v-51h-739q2 -127 80.5 -217t197.5 -90q190 0 305 145l121 -94q-154 -199 -426 -199q-129 0 -225 61.5 t-139 145.5q-104 -207 -383 -207q-141 0 -248 73t-107 216zM268 270q0 -76 65.5 -111.5t158.5 -35.5q125 0 202.5 78t77.5 202v27h-240q-47 0 -90 -7t-84 -23.5t-65.5 -50.5t-24.5 -79zM920 565h567q-4 123 -81 197t-208 74q-115 0 -194.5 -83.5t-83.5 -187.5z" />
<glyph unicode="&#xe7;" horiz-adv-x="987" d="M96 479q0 219 138.5 361.5t357.5 142.5q229 0 369 -152l-127 -112q-96 117 -242 117q-156 0 -240 -100.5t-84 -256.5q0 -152 90.5 -254t233.5 -102q158 0 244 119l118 -113q-125 -143 -325 -149l-78 -111q6 0 18.5 3t25.5 4t28 1q61 0 112 -37t51 -104q0 -90 -71.5 -135 t-167.5 -45q-111 0 -203 43l35 75q72 -33 147 -32q49 0 87 19.5t38 64.5q0 39 -32.5 58t-73.5 19q-31 0 -80 -16l-41 39l113 156q-199 14 -320 151t-121 346z" />
<glyph unicode="&#xe8;" d="M96 479q0 221 139.5 362.5t352.5 141.5q207 0 330.5 -133t123.5 -369v-51h-774q10 -127 98.5 -217t215.5 -90q190 0 305 145l121 -94q-154 -199 -426 -199q-219 0 -352.5 144.5t-133.5 359.5zM268 565h602q-4 123 -80.5 197t-207.5 74t-214.5 -74t-99.5 -197zM272 1483 h226l213 -295h-146z" />
<glyph unicode="&#xe9;" d="M96 479q0 221 139.5 362.5t352.5 141.5q207 0 330.5 -133t123.5 -369v-51h-774q10 -127 98.5 -217t215.5 -90q190 0 305 145l121 -94q-154 -199 -426 -199q-219 0 -352.5 144.5t-133.5 359.5zM268 565h602q-4 123 -80.5 197t-207.5 74t-214.5 -74t-99.5 -197zM428 1188 l213 295h225l-293 -295h-145z" />
<glyph unicode="&#xea;" d="M96 479q0 221 139.5 362.5t352.5 141.5q207 0 330.5 -133t123.5 -369v-51h-774q10 -127 98.5 -217t215.5 -90q190 0 305 145l121 -94q-154 -199 -426 -199q-219 0 -352.5 144.5t-133.5 359.5zM248 1188l227 295h187l229 -295h-166l-162 209l-160 -209h-155zM268 565h602 q-4 123 -80.5 197t-207.5 74t-214.5 -74t-99.5 -197z" />
<glyph unicode="&#xeb;" d="M96 479q0 221 139.5 362.5t352.5 141.5q207 0 330.5 -133t123.5 -369v-51h-774q10 -127 98.5 -217t215.5 -90q190 0 305 145l121 -94q-154 -199 -426 -199q-219 0 -352.5 144.5t-133.5 359.5zM256 1323q0 45 33 78t78 33t77.5 -33t32.5 -78t-31.5 -78t-79 -33t-79 33 t-31.5 78zM268 565h602q-4 123 -80.5 197t-207.5 74t-214.5 -74t-99.5 -197zM662 1323q0 45 32.5 78t77.5 33t78 -33t33 -78t-32 -78t-79 -33t-78.5 33t-31.5 78z" />
<glyph unicode="&#xec;" horiz-adv-x="491" d="M-51 1483h225l213 -295h-145zM166 0v958h160v-958h-160z" />
<glyph unicode="&#xed;" horiz-adv-x="491" d="M104 1188l213 295h226l-293 -295h-146zM166 0v958h160v-958h-160z" />
<glyph unicode="&#xee;" horiz-adv-x="491" d="M-76 1188l228 295h186l229 -295h-166l-161 209l-160 -209h-156zM166 0v958h160v-958h-160z" />
<glyph unicode="&#xef;" horiz-adv-x="491" d="M-68 1323q0 45 33 78t78 33t78 -33t33 -78t-32 -78t-79 -33t-79 33t-32 78zM166 0v958h160v-958h-160zM338 1323q0 45 32.5 78t78 33t78 -33t32.5 -78t-31.5 -78t-79 -33t-79 33t-31.5 78z" />
<glyph unicode="&#xf0;" horiz-adv-x="1216" d="M96 479q0 223 144.5 363.5t367.5 140.5q166 0 266 -100l3 4q-92 172 -310 389l-219 -111l-86 84l217 109q-76 72 -180 155l141 82q115 -96 187 -163l219 110l94 -80l-227 -114q193 -182 300 -369.5t107 -435.5q0 -258 -131 -413t-381 -155q-223 0 -367.5 140.5 t-144.5 363.5zM268 479.5q0 -153.5 94.5 -255t246 -101.5t245.5 101.5t94 255t-94 255t-245.5 101.5t-246 -101.5t-94.5 -255z" />
<glyph unicode="&#xf1;" d="M143 958h152q0 -25 2 -78t2 -79h4q35 76 121 129t199 53q182 0 273 -105.5t91 -285.5v-592h-160v575q0 123 -55 192t-164 69q-150 0 -223.5 -98.5t-73.5 -270.5v-467h-159v731q0 47 -4.5 122.5t-4.5 104.5zM227 1212q14 88 67.5 150.5t137.5 62.5q57 0 172 -47 q10 -4 27.5 -12t28 -12t25.5 -7.5t30 -3.5q72 0 98 91h98q-14 -90 -60 -151.5t-130 -61.5q-57 0 -166 43q-96 39 -135 39q-70 0 -94 -91h-99z" />
<glyph unicode="&#xf2;" horiz-adv-x="1216" d="M96 479q0 223 144.5 363.5t367.5 140.5t367.5 -140.5t144.5 -363.5t-144.5 -363.5t-367.5 -140.5t-367.5 140.5t-144.5 363.5zM268 479.5q0 -153.5 94.5 -255t246 -101.5t245.5 101.5t94 255t-94 255t-245.5 101.5t-246 -101.5t-94.5 -255zM311 1483h226l213 -295h-146z " />
<glyph unicode="&#xf3;" horiz-adv-x="1216" d="M96 479q0 223 144.5 363.5t367.5 140.5t367.5 -140.5t144.5 -363.5t-144.5 -363.5t-367.5 -140.5t-367.5 140.5t-144.5 363.5zM268 479.5q0 -153.5 94.5 -255t246 -101.5t245.5 101.5t94 255t-94 255t-245.5 101.5t-246 -101.5t-94.5 -255zM467 1188l213 295h225 l-293 -295h-145z" />
<glyph unicode="&#xf4;" horiz-adv-x="1216" d="M96 479q0 223 144.5 363.5t367.5 140.5t367.5 -140.5t144.5 -363.5t-144.5 -363.5t-367.5 -140.5t-367.5 140.5t-144.5 363.5zM268 479.5q0 -153.5 94.5 -255t246 -101.5t245.5 101.5t94 255t-94 255t-245.5 101.5t-246 -101.5t-94.5 -255zM287 1188l227 295h186 l230 -295h-166l-162 209l-160 -209h-155z" />
<glyph unicode="&#xf5;" horiz-adv-x="1216" d="M96 479q0 223 144.5 363.5t367.5 140.5t367.5 -140.5t144.5 -363.5t-144.5 -363.5t-367.5 -140.5t-367.5 140.5t-144.5 363.5zM266 1212q14 88 67.5 150.5t137.5 62.5q57 0 172 -47q86 -35 111 -35q72 0 98 91h98q-14 -90 -60 -151.5t-130 -61.5q-59 0 -166 43 q-98 39 -135 39q-70 0 -94 -91h-99zM268 479.5q0 -153.5 94.5 -255t246 -101.5t245.5 101.5t94 255t-94 255t-245.5 101.5t-246 -101.5t-94.5 -255z" />
<glyph unicode="&#xf6;" horiz-adv-x="1216" d="M96 479q0 223 144.5 363.5t367.5 140.5t367.5 -140.5t144.5 -363.5t-144.5 -363.5t-367.5 -140.5t-367.5 140.5t-144.5 363.5zM268 479.5q0 -153.5 94.5 -255t246 -101.5t245.5 101.5t94 255t-94 255t-245.5 101.5t-246 -101.5t-94.5 -255zM295 1323q0 45 32.5 78t78 33 t78 -33t32.5 -78t-32.5 -78t-78 -33t-78 33t-32.5 78zM700 1323q0 45 33 78t78 33t78 -33t33 -78t-33 -78t-78 -33t-78 33t-33 78z" />
<glyph unicode="&#xf7;" horiz-adv-x="1363" d="M147 553v135h1070v-135h-1070zM565 283q0 49 35 82.5t82 33.5t82 -34.5t35 -81.5q0 -49 -35 -83t-82 -34t-82 35t-35 82zM565 958q0 49 35 83t82 34t82 -34.5t35 -82.5q0 -49 -35 -82.5t-82 -33.5t-82 34.5t-35 81.5z" />
<glyph unicode="&#xf8;" horiz-adv-x="1216" d="M76 4l139 143q-119 131 -119 332q0 223 144.5 363.5t367.5 140.5q188 0 326 -104l137 141l70 -66l-137 -141q117 -137 116 -334q0 -223 -144.5 -363.5t-367.5 -140.5q-190 0 -323 107l-140 -143zM268 479q0 -125 64 -213l489 498q-88 72 -213 72q-152 0 -246 -101.5 t-94 -255.5zM395 195q84 -72 213 -72q152 0 246 101.5t94 254.5q0 125 -63 213z" />
<glyph unicode="&#xf9;" d="M152 367v591h159v-575q0 -123 55.5 -191.5t163.5 -68.5q150 0 223.5 98t73.5 271v466h160v-731q0 -47 4 -122.5t4 -104.5h-151q0 25 -2 78t-2 80h-4q-35 -76 -121 -129.5t-199 -53.5q-182 0 -273 106t-91 286zM272 1483h226l213 -295h-146z" />
<glyph unicode="&#xfa;" d="M152 367v591h159v-575q0 -123 55.5 -191.5t163.5 -68.5q150 0 223.5 98t73.5 271v466h160v-731q0 -47 4 -122.5t4 -104.5h-151q0 25 -2 78t-2 80h-4q-35 -76 -121 -129.5t-199 -53.5q-182 0 -273 106t-91 286zM428 1188l213 295h225l-293 -295h-145z" />
<glyph unicode="&#xfb;" d="M152 367v591h159v-575q0 -123 55.5 -191.5t163.5 -68.5q150 0 223.5 98t73.5 271v466h160v-731q0 -47 4 -122.5t4 -104.5h-151q0 25 -2 78t-2 80h-4q-35 -76 -121 -129.5t-199 -53.5q-182 0 -273 106t-91 286zM248 1188l227 295h187l229 -295h-166l-162 209l-160 -209 h-155z" />
<glyph unicode="&#xfc;" d="M152 367v591h159v-575q0 -123 55.5 -191.5t163.5 -68.5q150 0 223.5 98t73.5 271v466h160v-731q0 -47 4 -122.5t4 -104.5h-151q0 25 -2 78t-2 80h-4q-35 -76 -121 -129.5t-199 -53.5q-182 0 -273 106t-91 286zM256 1323q0 45 33 78t78 33t77.5 -33t32.5 -78t-31.5 -78 t-79 -33t-79 33t-31.5 78zM662 1323q0 45 32.5 78t77.5 33t78 -33t33 -78t-32 -78t-79 -33t-78.5 33t-31.5 78z" />
<glyph unicode="&#xfd;" horiz-adv-x="987" d="M20 958h187l297 -751h4l285 751h174l-463 -1177q-55 -141 -121 -207t-199 -66q-92 0 -143 25l20 139q43 -16 113 -16q72 0 111 39t67 119l66 180zM352 1188l213 295h226l-293 -295h-146z" />
<glyph unicode="&#xfe;" horiz-adv-x="1251" d="M143 -467v2015h160v-729h4q141 164 344 164q223 0 363.5 -142.5t140.5 -361.5q0 -215 -138 -359.5t-341 -144.5q-125 0 -223.5 55.5t-145.5 139.5h-4v-637h-160zM303 479.5q0 -153.5 94.5 -255t246 -101.5t245.5 101.5t94 255t-94 255t-245.5 101.5t-246 -101.5 t-94.5 -255z" />
<glyph unicode="&#xff;" horiz-adv-x="987" d="M20 958h187l297 -751h4l285 751h174l-463 -1177q-55 -141 -121 -207t-199 -66q-92 0 -143 25l20 139q43 -16 113 -16q72 0 111 39t67 119l66 180zM180 1323q0 45 33 78t78 33t77.5 -33t32.5 -78t-32.5 -78t-77.5 -33t-78 33t-33 78zM586 1323q0 45 32.5 78t77.5 33 t78 -33t33 -78t-33 -78t-78 -33t-77.5 33t-32.5 78z" />
<glyph unicode="&#x152;" horiz-adv-x="1972" d="M113 725q0 143 52 272t149.5 230.5t254 162t349.5 60.5h929v-160h-614v-454h577v-160h-577v-516h627v-160h-942q-193 0 -349.5 60.5t-254 162t-149.5 230.5t-52 272zM297 725q0 -229 162 -397t467 -168h135v1130h-135q-305 0 -467 -168t-162 -397z" />
<glyph unicode="&#x153;" horiz-adv-x="1857" d="M74 479q0 217 138 360.5t355 143.5q250 0 400 -192q150 193 362 192q207 0 331 -133t124 -369v-51h-740q2 -127 81 -217t198 -90q190 0 305 145l121 -94q-154 -199 -426 -199q-238 0 -356 197q-147 -197 -394 -197q-227 0 -363 138.5t-136 365.5zM246 479 q0 -147 84 -251.5t235 -104.5q158 0 245 101.5t87 254.5q0 150 -85 253.5t-239 103.5q-156 0 -241.5 -101.5t-85.5 -255.5zM1044 565h568q-4 123 -81 197t-208 74q-115 0 -195 -83.5t-84 -187.5z" />
<glyph unicode="&#x178;" horiz-adv-x="1216" d="M-18 1450h219l407 -655l420 655h207l-541 -825v-625h-172v625zM295 1687.5q0 45.5 32.5 78t78 32.5t78 -32.5t32.5 -78t-32.5 -78t-78 -32.5t-78 32.5t-32.5 78zM700 1687.5q0 45.5 33 78t78 32.5t78 -32.5t33 -78t-33 -78t-78 -32.5t-78 32.5t-33 78z" />
<glyph unicode="&#x2c6;" horiz-adv-x="491" d="M-76 1155l228 295h186l229 -295h-166l-161 209l-160 -209h-156z" />
<glyph unicode="&#x2dc;" horiz-adv-x="491" d="M-96 1180q14 88 67.5 150.5t137.5 62.5q57 0 172 -47q10 -4 27.5 -12.5t27.5 -12.5t25.5 -7t29.5 -3q72 0 98 90h99q-14 -90 -60.5 -151.5t-130.5 -61.5q-57 0 -166 43q-96 39 -135 39q-70 0 -94 -90h-98z" />
<glyph unicode="&#x2000;" horiz-adv-x="950" />
<glyph unicode="&#x2001;" horiz-adv-x="1900" />
<glyph unicode="&#x2002;" horiz-adv-x="950" />
<glyph unicode="&#x2003;" horiz-adv-x="1900" />
<glyph unicode="&#x2004;" horiz-adv-x="632" />
<glyph unicode="&#x2005;" horiz-adv-x="475" />
<glyph unicode="&#x2006;" horiz-adv-x="315" />
<glyph unicode="&#x2007;" horiz-adv-x="315" />
<glyph unicode="&#x2008;" horiz-adv-x="237" />
<glyph unicode="&#x2009;" horiz-adv-x="378" />
<glyph unicode="&#x200a;" horiz-adv-x="104" />
<glyph unicode="&#x2010;" horiz-adv-x="681" d="M90 418v147h502v-147h-502z" />
<glyph unicode="&#x2011;" horiz-adv-x="681" d="M90 418v147h502v-147h-502z" />
<glyph unicode="&#x2012;" horiz-adv-x="681" d="M90 418v147h502v-147h-502z" />
<glyph unicode="&#x2013;" horiz-adv-x="1024" d="M0 418v147h1024v-147h-1024z" />
<glyph unicode="&#x2014;" horiz-adv-x="2048" d="M0 418v147h2048v-147h-2048z" />
<glyph unicode="&#x2018;" horiz-adv-x="569" d="M123 958l168 492h155l-137 -492h-186z" />
<glyph unicode="&#x2019;" horiz-adv-x="569" d="M123 958l137 492h186l-167 -492h-156z" />
<glyph unicode="&#x201a;" horiz-adv-x="569" d="M123 -283l137 492h186l-167 -492h-156z" />
<glyph unicode="&#x201c;" horiz-adv-x="1062" d="M178 958l168 492h156l-137 -492h-187zM561 958l168 492h156l-137 -492h-187z" />
<glyph unicode="&#x201d;" horiz-adv-x="1062" d="M178 958l137 492h187l-168 -492h-156zM561 958l137 492h187l-168 -492h-156z" />
<glyph unicode="&#x201e;" horiz-adv-x="1062" d="M178 -283l137 492h187l-168 -492h-156zM561 -283l137 492h187l-168 -492h-156z" />
<glyph unicode="&#x2022;" horiz-adv-x="1024" d="M150 725q0 152 105 257t257 105t257 -105t105 -257t-105 -257.5t-257 -105.5t-257 105.5t-105 257.5z" />
<glyph unicode="&#x2026;" horiz-adv-x="2048" d="M219 111q0 51 36 86.5t87 35.5t87 -35.5t36 -86.5q0 -49 -37 -86t-86 -37t-86 37t-37 86zM901 111q0 51 36 86.5t87 35.5t87 -35.5t36 -86.5q0 -49 -37 -86t-86 -37t-86 37t-37 86zM1583 111q0 51 36 86.5t87 35.5t87 -35.5t36 -86.5q0 -49 -37 -86t-86 -37t-86 37 t-37 86z" />
<glyph unicode="&#x202f;" horiz-adv-x="378" />
<glyph unicode="&#x2039;" horiz-adv-x="643" d="M119 492l293 438l112 -74l-239 -364l239 -365l-112 -74z" />
<glyph unicode="&#x203a;" horiz-adv-x="643" d="M119 127l239 365l-239 364l112 74l293 -438l-293 -439z" />
<glyph unicode="&#x205f;" horiz-adv-x="475" />
<glyph unicode="&#x20ac;" d="M47 473l37 117h98q-4 78 -4 119q0 88 8 151h-135l39 121h119q55 238 205.5 366t357.5 128q84 0 170 -21.5t133 -52.5l-43 -144q-102 76 -262 76q-139 0 -239.5 -90t-143.5 -262h567l-30 -121h-559q-10 -82 -11 -158q0 -39 4 -112h496l-33 -117h-448q61 -360 346 -360 q154 0 258 127l94 -93q-55 -76 -152.5 -124t-211.5 -48q-207 0 -338 127t-172 371h-150z" />
<glyph unicode="&#x2122;" horiz-adv-x="2027" d="M131 1315v135h668v-135h-267v-709h-135v709h-266zM969 606v844h215l252 -641l252 641h208v-844h-135v709h-4l-278 -709h-93l-278 709h-4v-709h-135z" />
<glyph unicode="&#xe000;" horiz-adv-x="960" d="M0 960h960v-960h-960v960z" />
<glyph unicode="&#xfb01;" horiz-adv-x="1099" d="M25 823v135h208v216q0 399 340 399q78 0 123 -25l-22 -143q-57 20 -109 20q-59 0 -96 -19.5t-52.5 -64.5t-19.5 -86t-4 -116v-181h234v-135h-234v-823h-160v823h-208zM737 1333q0 47 34 82t83 35t83 -35t34 -82q0 -51 -33 -83.5t-84 -32.5t-84 32.5t-33 83.5zM774 0v958 h160v-958h-160z" />
<glyph unicode="&#xfb02;" horiz-adv-x="1099" d="M25 823v135h208v216q0 399 340 399q78 0 123 -25l-22 -143q-57 20 -109 20q-59 0 -96 -19.5t-52.5 -64.5t-19.5 -86t-4 -116v-181h234v-135h-234v-823h-160v823h-208zM774 0v1548h160v-1548h-160z" />
<glyph unicode="&#xfb03;" horiz-adv-x="1781" d="M1419 1333q0 47 34 82t83 35t82.5 -35t33.5 -82q0 -51 -32.5 -83.5t-83.5 -32.5t-84 32.5t-33 83.5zM1456 0v958h160v-958h-160zM670 823v135h208v216q0 399 340 399q78 0 123 -25l-22 -143q-57 20 -109 20q-59 0 -96 -19.5t-52.5 -64.5t-19.5 -86t-4 -116v-181h234v-135 h-234v-823h-160v823h-208zM25 823v135h208v216q0 399 340 399q78 0 123 -25l-22 -143q-57 20 -109 20q-59 0 -96 -19.5t-52.5 -64.5t-19.5 -86t-4 -116v-181h234v-135h-234v-823h-160v823h-208z" />
<glyph unicode="&#xfb04;" horiz-adv-x="1781" d="M1456 0v1548h160v-1548h-160zM670 823v135h208v216q0 399 340 399q78 0 123 -25l-22 -143q-57 20 -109 20q-59 0 -96 -19.5t-52.5 -64.5t-19.5 -86t-4 -116v-181h234v-135h-234v-823h-160v823h-208zM25 823v135h208v216q0 399 340 399q78 0 123 -25l-22 -143 q-57 20 -109 20q-59 0 -96 -19.5t-52.5 -64.5t-19.5 -86t-4 -116v-181h234v-135h-234v-823h-160v823h-208z" />
</font>
</defs>
</svg>
